<?xml version="1.0" encoding="UTF-8"?>
<!-- Wordmark variant for LIGHT backgrounds — text & left-Y in brand green (#11a32c) -->
<svg id="Layer_2" data-name="Layer 2" xmlns="http://www.w3.org/2000/svg" viewBox="0 0 1047.99 193.22">
  <defs>
    <style>
      .wg1 { fill: #11a32c; stroke-width: 0px; } /* green text + left-Y */
      .wg2 { fill: #f9d503; stroke-width: 0px; } /* yellow E-bars + right-Y accent */
    </style>
  </defs>
  <g id="Layer_1-2" data-name="Layer 1">
    <g>
      <g>
        <path class="wg1" d="M397.32,84.19v-27.9L360,0h23.25l16.08,24.63,7.04,11.31h1.38l7.04-11.31L430.88,0h23.37l-37.95,56.42v27.77h-18.97Z"/>
        <path class="wg1" d="M438.74,52.78c0-20.1,14.2-32.8,34.93-32.8s34.3,10.81,34.3,30.53c0,2.26-.25,3.9-.5,6.03h-51.27c.5,9.68,5.03,13.82,17.21,13.82,11.18,0,15.08-2.89,15.08-8.29v-1.26h18.85v1.38c0,13.7-13.32,23.25-33.3,23.25-20.99,0-35.31-10.3-35.31-32.67ZM456.46,46.62h33.42c-.5-8.29-5.53-11.94-16.59-11.94s-15.96,3.77-16.84,11.94Z"/>
        <path class="wg1" d="M522.39,84.19l-17.21-62.95h19.48l7.41,28.78,2.64,19.6h1.26l5.03-21.49,9.55-26.89h24.25l9.42,26.89,5.03,21.49h1.26l2.76-19.6,7.29-28.78h19.23l-17.84,62.95h-23.5l-10.81-30.28-4.65-17.34h-1.38l-4.78,17.34-10.93,30.28h-23.5Z"/>
        <path class="wg1" d="M616.52,68.61c0-9.3,6.91-15.08,20.36-16.46l27.02-2.76v-2.39c0-8.17-3.64-10.43-13.7-10.43s-13.45,2.51-13.45,9.68v.5h-18.97v-.38c0-15.58,13.07-26.39,33.8-26.39s30.91,10.81,30.91,27.27v36.94h-17.59v-14.45h-1.01c-2.89,9.8-11.69,15.71-25.63,15.71s-21.74-6.28-21.74-16.84ZM643.66,72.13c12.82,0,19.73-3.02,20.23-11.94l-21.86,2.51c-4.52.38-6.53,1.63-6.53,4.65,0,3.39,2.64,4.77,8.17,4.77Z"/>
        <path class="wg1" d="M736.02,84.19v-27.9L698.7,0h23.25l16.08,24.63,7.04,11.31h1.38l7.04-11.31,16.08-24.63h23.37l-37.95,56.42v27.77h-18.97Z"/>
        <path class="wg1" d="M777.15,52.78c0-20.1,14.45-32.8,35.94-32.8s35.94,12.69,35.94,32.8-14.45,32.67-35.94,32.67-35.94-12.82-35.94-32.67ZM830.3,52.78c0-11.06-4.52-16.21-17.21-16.21s-17.21,5.15-17.21,16.21,4.4,15.96,17.21,15.96,17.21-4.9,17.21-15.96Z"/>
        <path class="wg1" d="M851.99,60.44V21.24h18.85v32.92c0,10.18,4.27,14.45,16.21,14.45s16.71-4.78,16.71-15.46v-31.92h18.85v62.95h-17.59v-19.23h-1.01c-1.63,10.56-9.3,20.48-25.88,20.48-17.72,0-26.14-10.93-26.14-25.01Z"/>
        <path class="wg1" d="M957.38,84.19c-14.7,0-23.62-6.91-23.62-22.74v-24.63h-9.93v-15.58h9.93v-12.19h18.85v12.19h20.36v15.58h-20.36v22.49c0,6.28,2.39,7.92,9.05,7.92h11.31v16.96h-15.58Z"/>
        <path class="wg1" d="M977.37,84.19V0h18.85v40.46h1c2.01-10.68,9.42-20.48,25.51-20.48,16.96,0,25.26,11.06,25.26,25.63v38.58h-18.85v-32.92c0-10.55-4.52-14.33-16.34-14.33-12.69,0-16.59,5.15-16.59,15.71v31.54h-18.85Z"/>
        <path class="wg1" d="M366.41,191.96v-84.19h71.25v16.96h-52.4v16.46h50.51v16.84h-50.51v16.96h52.4v16.96h-71.25Z"/>
        <path class="wg1" d="M443.39,191.96v-84.19h18.85v84.19h-18.85Z"/>
        <path class="wg1" d="M468.55,122.6v-14.83h18.85v14.83h-18.85ZM468.55,191.96v-62.95h18.85v62.95h-18.85Z"/>
        <path class="wg1" d="M522.29,191.96c-14.7,0-23.62-6.91-23.62-22.74v-24.63h-9.93v-15.58h9.93v-12.19h18.85v12.19h20.36v15.58h-20.36v22.49c0,6.28,2.39,7.92,9.05,7.92h11.31v16.96h-15.58Z"/>
        <path class="wg1" d="M538.13,160.55c0-20.1,14.2-32.8,34.93-32.8s34.3,10.81,34.3,30.53c0,2.26-.25,3.9-.5,6.03h-51.27c.5,9.68,5.03,13.82,17.21,13.82,11.18,0,15.08-2.89,15.08-8.29v-1.26h18.85v1.38c0,13.7-13.32,23.25-33.3,23.25-20.99,0-35.31-10.3-35.31-32.67ZM555.85,154.39h33.42c-.5-8.29-5.53-11.94-16.59-11.94s-15.96,3.77-16.84,11.94Z"/>
        <path class="wg1" d="M609.83,170.35v-.38h18.85v1.13c0,5.66,3.52,7.16,14.2,7.16,10.05,0,12.44-1.63,12.44-5.4,0-3.52-1.88-4.52-9.3-5.53l-17.72-2.14c-12.57-1.38-19.6-7.04-19.6-17.59s9.42-19.85,31.04-19.85,32.29,7.79,32.29,23.12v.38h-18.85v-.75c0-5.15-2.51-7.79-14.07-7.79-9.42,0-11.81,1.63-11.81,5.65,0,3.27,1.76,4.65,10.05,5.65l13.45,1.63c16.84,1.88,23.12,7.54,23.12,17.97,0,11.81-11.69,19.6-31.16,19.6-21.24,0-32.92-8.29-32.92-22.87Z"/>
      </g>
      <g>
        <!-- Icon mark: yellow accents -->
        <g>
          <path class="wg2" d="M302.51,87.29c0,5.25-4.27,9.52-9.52,9.52h-62.59c-5.25,0-9.52-4.27-9.52-9.52s4.27-9.52,9.52-9.52h62.59c5.25,0,9.52,4.27,9.52,9.52Z"/>
          <path class="wg2" d="M302.51,160.91c0,5.26-4.27,9.53-9.52,9.53h-62.59c-5.25,0-9.52-4.27-9.52-9.52s4.27-9.53,9.52-9.53h62.59c5.25,0,9.52,4.27,9.52,9.52Z"/>
        </g>
        <!-- Icon mark: left Y — green on light bg -->
        <path class="wg1" d="M152.47,31.44l-20.31,20.32-4.25,4.24-.7.71-2.13,2.12h-.01s-2.09,2.12-2.09,2.12l-5.7,5.69-2.83,2.83-.46.46h-.01l-3.78,3.78-21.77,21.77c-.82.82-1.27,1.91-1.27,3.06v62.38c0,5.25-4.27,9.52-9.52,9.52h-.01c-5.25,0-9.52-4.27-9.52-9.52v-62.37c0-1.15-.45-2.24-1.26-3.06L2.8,31.44C.06,28.71-.75,24.64.73,21.07c1.48-3.57,4.93-5.88,8.8-5.88,2.55,0,4.94.99,6.74,2.79l59.56,59.57c.48.48,1.12.74,1.8.74s1.32-.26,1.8-.74l17.31-17.31,4.25-4.24.7-.7,9.93-9.93,3.3-3.3,6-6,18.09-18.09c1.8-1.8,4.19-2.79,6.73-2.79,3.87,0,7.32,2.31,8.8,5.88,1.47,3.57.66,7.64-2.07,10.37Z"/>
        <g>
          <!-- Icon mark: right Y + upper accent — yellow -->
          <path class="wg2" d="M302.51,24.71c0,5.25-4.27,9.52-9.52,9.52h-49.48c-9.52,0-18.61,3.57-25.6,10.05l-55.41,51.38c-1.09,1.01-1.72,2.45-1.72,3.93v61.33c0,5.25-4.27,9.52-9.52,9.52s-9.52-4.27-9.52-9.52v-61.94c0-1.43-.56-2.78-1.57-3.79l-21.47-21.47,8.54-8.55,2.06-2.08,2.18-2.17.67-.68,17.49,17.49c.48.48,1.12.74,1.81.74.64,0,1.25-.24,1.72-.67l54.76-50.51c8.45-7.8,19.44-12.1,30.95-12.1h54.11c5.25,0,9.52,4.27,9.52,9.52Z"/>
          <path class="wg2" d="M110.21,38.3l-13.46,13.46-20.32-20.32c-2.74-2.73-3.55-6.8-2.07-10.37,1.48-3.57,4.93-5.88,8.8-5.88,2.54,0,4.93.99,6.73,2.79l20.32,20.32Z"/>
        </g>
      </g>
    </g>
  </g>
</svg>
