<?xml version="1.0" encoding="UTF-8"?>
<svg id="Layer_2" data-name="Layer 2" xmlns="http://www.w3.org/2000/svg" viewBox="0 0 302.51 155.25">
  <defs>
    <style>
      .cls-1 { fill: #f9d503; stroke-width: 0px; }
      .cls-2 { fill: #11a32c; stroke-width: 0px; }
    </style>
  </defs>
  <g id="Layer_1-2" data-name="Layer 1">
    <g>
      <g>
        <path class="cls-1" d="M302.51,72.1c0,5.25-4.27,9.52-9.52,9.52h-62.59c-5.25,0-9.52-4.27-9.52-9.52s4.27-9.52,9.52-9.52h62.59c5.25,0,9.52,4.27,9.52,9.52Z"/>
        <path class="cls-1" d="M302.51,145.72c0,5.26-4.27,9.53-9.52,9.53h-62.59c-5.25,0-9.52-4.27-9.52-9.52s4.27-9.53,9.52-9.53h62.59c5.25,0,9.52,4.27,9.52,9.52Z"/>
      </g>
      <path class="cls-2" d="M152.47,16.25l-20.31,20.32-4.25,4.24-.7.71-2.13,2.12h-.01s-2.09,2.12-2.09,2.12l-5.7,5.69-2.83,2.83-.46.46h-.01l-3.78,3.78-21.77,21.77c-.82.82-1.27,1.91-1.27,3.06v62.38c0,5.25-4.27,9.52-9.52,9.52h-.01c-5.25,0-9.52-4.27-9.52-9.52v-62.37c0-1.15-.45-2.24-1.26-3.06L2.8,16.25C.06,13.52-.75,9.45.73,5.88,2.21,2.31,5.66,0,9.53,0c2.55,0,4.94.99,6.74,2.79l59.56,59.57c.48.48,1.12.74,1.8.74s1.32-.26,1.8-.74l17.31-17.31,4.25-4.24.7-.7,9.93-9.93,3.3-3.3,6-6,18.09-18.09c1.8-1.8,4.19-2.79,6.73-2.79,3.87,0,7.32,2.31,8.8,5.88,1.47,3.57.66,7.64-2.07,10.37Z"/>
      <g>
        <path class="cls-1" d="M302.51,9.52c0,5.25-4.27,9.52-9.52,9.52h-49.48c-9.52,0-18.61,3.57-25.6,10.05l-55.41,51.38c-1.09,1.01-1.72,2.45-1.72,3.93v61.33c0,5.25-4.27,9.52-9.52,9.52s-9.52-4.27-9.52-9.52v-61.94c0-1.43-.56-2.78-1.57-3.79l-21.47-21.47,8.54-8.55,2.06-2.08,2.18-2.17.67-.68,17.49,17.49c.48.48,1.12.74,1.81.74.64,0,1.25-.24,1.72-.67l54.76-50.51c8.45-7.8,19.44-12.1,30.95-12.1h54.11c5.25,0,9.52,4.27,9.52,9.52Z"/>
        <path class="cls-1" d="M110.21,23.11l-13.46,13.46-20.32-20.32c-2.74-2.73-3.55-6.8-2.07-10.37,1.48-3.57,4.93-5.88,8.8-5.88,2.54,0,4.93.99,6.73,2.79l20.32,20.32Z"/>
      </g>
    </g>
  </g>
</svg>
